Coordinates
version=1
nRows=32
nColumns=22
inDegrees=yes

Units are S.I. units (second, meters, Newtons, ...)
If the header above contains a line with 'inDegrees', this indicates whether rotational values are in degrees (yes) or radians (no).

endheader
time	pelvis_tilt	pelvis_list	pelvis_rotation	pelvis_tx	pelvis_ty	pelvis_tz	hip_flexion_r	hip_adduction_r	hip_rotation_r	knee_angle_r	ankle_angle_r	subtalar_angle_r	hip_flexion_l	hip_adduction_l	hip_rotation_l	knee_angle_l	ankle_angle_l	subtalar_angle_l	lumbar_extension	lumbar_bending	lumbar_rotation
      2.94000000	     -0.07533431	     -3.63957874	    -87.74055102	      1.32193470	      0.89796423	      0.47876368	     -5.12168375	      0.87970495	     -3.13471663	    -11.17417323	     18.60469781	     -6.08722130	     -4.67106716	     -0.64829492	    -11.15385759	    -13.26842854	     15.37880086	     -0.91802977	     -5.58012316	     -1.37124108	      4.22289940
      2.95000000	     -0.20252892	     -3.64170090	    -87.91325145	      1.32144738	      0.89777375	      0.47999234	     -5.70998818	      1.01901752	     -3.04145550	    -10.22706704	     18.46173396	     -5.98245237	     -4.89394348	     -0.78675212	    -11.40440844	    -13.07056168	     15.48379255	     -0.82083735	     -5.51226420	     -1.30066061	      4.39307567
      2.96000000	     -0.29137451	     -3.73341262	    -88.08183609	      1.32096976	      0.89771585	      0.48120960	     -6.40258780	      1.11443746	     -2.95887872	     -9.27341623	     18.33177851	     -5.84955383	     -5.21979405	     -0.88547902	    -11.67932860	    -12.85985087	     15.56509888	     -0.65774250	     -5.55294067	     -1.27046527	      4.52855234
      2.97000000	     -0.43264754	     -3.76031054	    -88.23098902	      1.32050456	      0.89758768	      0.48230382	     -7.01931789	      1.26860930	     -2.81060755	     -8.31256805	     18.08908771	     -5.75717819	     -5.41223925	     -1.04714222	    -11.89004404	    -12.74568899	     15.68195867	     -0.57309468	     -5.52466923	     -1.18064006	      4.67614399
      2.98000000	     -0.52691785	     -3.88020800	    -88.38217785	      1.32006066	      0.89760278	      0.48337590	     -7.74151306	      1.36769869	     -2.66979984	     -7.34546334	     17.88581711	     -5.63978406	     -5.71505208	     -1.15530691	    -12.11760175	    -12.60948884	     15.76158708	     -0.43138609	     -5.61284745	     -1.13954800	      4.80690568
      2.99000000	     -0.65921124	     -3.91302956	    -88.51012877	      1.31963549	      0.89751817	      0.48431782	     -8.34121147	      1.50823622	     -2.47824847	     -6.41307184	     17.58065977	     -5.55852646	     -5.85218533	     -1.31298164	    -12.27978584	    -12.58367351	     15.87996020	     -0.37316588	     -5.60490171	     -1.05573226	      4.93809955
      3.00000000	     -0.76065382	     -3.99353741	    -88.64119371	      1.31922866	      0.89750952	      0.48521464	     -8.96470697	      1.60977775	     -2.27496901	     -5.52913447	     17.30724665	     -5.46935119	     -6.03530991	     -1.43556180	    -12.44749775	    -12.56187162	     15.98184185	     -0.30365439	     -5.65859613	     -1.00188788	      5.06271981
      3.01000000	     -0.84301463	     -4.05506855	    -88.76175245	      1.31884278	      0.89748579	      0.48602058	     -9.51642899	      1.68801377	     -2.06048801	     -4.73053970	     17.05653557	     -5.38344610	     -6.16560436	     -1.53753782	    -12.58066950	    -12.58440798	     16.07296027	     -0.24731671	     -5.69928617	     -0.96735405	      5.17947053
      3.02000000	     -0.90217474	     -4.12991700	    -88.88503621	      1.31845749	      0.89748334	      0.48676936	    -10.01755445	      1.73663635	     -1.85036518	     -4.04623612	     16.86633161	     -5.29235657	     -6.29976694	     -1.61356055	    -12.71988617	    -12.61801554	     16.15015958	     -0.18947906	     -5.75953903	     -0.95685100	      5.28840896
      3.03000000	     -0.96363610	     -4.12285300	    -88.99296145	      1.31806429	      0.89737572	      0.48737476	    -10.34641378	      1.78874554	     -1.62431615	     -3.49853742	     16.66965132	     -5.23210435	     -6.28738954	     -1.69684546	    -12.78368826	    -12.73699145	     16.24235000	     -0.17736161	     -5.73433183	     -0.94831580	      5.40190415
      3.04000000	     -1.01074340	     -4.10998651	    -89.11770011	      1.31762308	      0.89725384	      0.48789730	    -10.58925728	      1.82390737	     -1.42418546	     -3.08369700	     16.54376900	     -5.17667943	     -6.25985840	     -1.76392150	    -12.87110855	    -12.86452910	     16.33314481	     -0.17557280	     -5.71257955	     -0.95837934	      5.52960253
      3.05000000	     -1.04435510	     -4.05970284	    -89.25508088	      1.31711395	      0.89707143	      0.48831154	    -10.71128722	      1.84753130	     -1.26420777	     -2.79871801	     16.47439604	     -5.12297128	     -6.17364952	     -1.81774576	    -12.95861120	    -13.01324503	     16.42132518	     -0.18709215	     -5.65813812	     -0.98930257	      5.67174091
      3.06000000	     -1.05182621	     -3.96668896	    -89.40641317	      1.31652371	      0.89681406	      0.48860116	    -10.72057740	      1.84829375	     -1.17057984	     -2.61313281	     16.46399726	     -5.06979264	     -6.02383995	     -1.84479504	    -13.05405608	    -13.18103047	     16.51075323	     -0.20664852	     -5.57045682	     -1.05912748	      5.82163697
      3.07000000	     -1.06769595	     -3.78949594	    -89.61340384	      1.31575691	      0.89642165	      0.48870413	    -10.52942815	      1.86077585	     -1.13017352	     -2.59299992	     16.47958889	     -4.98373280	     -5.75665284	     -1.88834867	    -13.22592260	    -13.38728986	     16.62775304	     -0.24820550	     -5.40701167	     -1.13602125	      6.06389706
      3.08000000	     -1.09153325	     -3.51808984	    -89.81952155	      1.31490526	      0.89587608	      0.48860669	    -10.14918914	      1.89488892	     -1.19541041	     -2.70299871	     16.58789163	     -4.83755878	     -5.34750970	     -1.95014078	    -13.34667420	    -13.64313381	     16.72891242	     -0.30397085	     -5.15591568	     -1.20956668	      6.30614470
      3.09000000	     -1.08105614	     -3.22938666	    -90.05108490	      1.31395928	      0.89529548	      0.48839592	     -9.70488746	      1.89815946	     -1.34762953	     -2.87464028	     16.71417717	     -4.67809345	     -4.92002683	     -1.97940324	    -13.51898439	    -13.88909128	     16.83170197	     -0.35274816	     -4.89813843	     -1.33240326	      6.57916663
      3.10000000	     -1.06577123	     -2.91243489	    -90.27703100	      1.31300445	      0.89468090	      0.48808782	     -9.19346044	      1.90297646	     -1.55140476	     -3.09863610	     16.84662690	     -4.49765164	     -4.45539218	     -2.00956363	    -13.69261784	    -14.13375454	     16.92921730	     -0.40051515	     -4.61833810	     -1.45882285	      6.85072039
      3.11000000	     -1.04814322	     -2.60301100	    -90.47399233	      1.31214391	      0.89410425	      0.48777278	     -8.68580747	      1.90726241	     -1.76815340	     -3.33341014	     16.96413249	     -4.30994210	     -4.00871732	     -2.03623101	    -13.84400378	    -14.35092679	     17.01574079	     -0.44851196	     -4.34624883	     -1.57458982	      7.09388757
      3.12000000	     -1.02790833	     -2.35033508	    -90.63182245	      1.31141802	      0.89364533	      0.48753638	     -8.24881048	      1.90856343	     -1.95510266	     -3.56909489	     17.07461477	     -4.15489865	     -3.65319435	     -2.05397359	    -13.96671014	    -14.51432539	     17.07383583	     -0.49454506	     -4.12750259	     -1.67913450	      7.29791806
      3.13000000	     -1.00758548	     -2.14808803	    -90.73530801	      1.31087721	      0.89329987	      0.48740194	     -7.89163375	      1.90688872	     -2.10514970	     -3.78125872	     17.16064676	     -4.03353213	     -3.37982389	     -2.06312162	    -14.04441260	    -14.62505792	     17.11143343	     -0.53938148	     -3.95345379	     -1.76523729	      7.44797413
      3.14000000	     -0.98563750	     -2.00173053	    -90.78655603	      1.31051297	      0.89307095	      0.48737172	     -7.62076151	      1.90020286	     -2.21668566	     -3.96999324	     17.23243292	     -3.95074284	     -3.19457194	     -2.06089135	    -14.08153114	    -14.68225329	     17.12885147	     -0.58001100	     -3.83135199	     -1.83645669	      7.54643690
      3.15000000	     -0.96096846	     -1.89793905	    -90.79194636	      1.31030067	      0.89292563	      0.48741387	     -7.41568487	      1.88790166	     -2.30070550	     -4.13986075	     17.29280503	     -3.90014073	     -3.07524337	     -2.04791092	    -14.08255686	    -14.69950071	     17.13206633	     -0.61508124	     -3.75087770	     -1.89608876	      7.60136349
      3.16000000	     -0.93741306	     -1.83638396	    -90.76532829	      1.31019138	      0.89285450	      0.48752810	     -7.27576047	      1.87542363	     -2.37613729	     -4.28883171	     17.34251911	     -3.88503575	     -3.02864638	     -2.02848947	    -14.06154136	    -14.66677960	     17.12552534	     -0.63557356	     -3.70997555	     -1.94657026	      7.63555840
      3.17000000	     -0.91717184	     -1.81654958	    -90.71017976	      1.31016510	      0.89284724	      0.48762788	     -7.19759640	      1.86592504	     -2.38040985	     -4.41287693	     17.34800226	     -3.88482075	     -3.02260414	     -2.01300509	    -14.03462083	    -14.63641470	     17.12389655	     -0.64136777	     -3.72319921	     -1.98282246	      7.61447548
      3.18000000	     -0.87049102	     -1.74475286	    -90.61052213	      1.31023422	      0.89275697	      0.48774883	     -7.05082220	      1.82975409	     -2.50617709	     -4.56748325	     17.47036653	     -3.88550033	     -2.96372839	     -1.96363190	    -13.93267525	    -14.58551622	     17.08195060	     -0.66451586	     -3.66638840	     -2.05179882	      7.60615102
      3.19000000	     -0.84174312	     -1.70675471	    -90.50131302	      1.31033969	      0.89271778	      0.48784785	     -6.95322517	      1.81259017	     -2.58440321	     -4.69947730	     17.51342219	     -3.89534407	     -2.94600393	     -1.93301121	    -13.84004873	    -14.52446242	     17.06517446	     -0.67803294	     -3.65278100	     -2.09175737	      7.56698701
      3.20000000	     -0.80463757	     -1.67410995	    -90.36654281	      1.31050044	      0.89267593	      0.48793591	     -6.87590563	      1.78774978	     -2.68763318	     -4.80794150	     17.57627899	     -3.91131261	     -2.92972290	     -1.89311982	    -13.72577028	    -14.46319979	     17.03724182	     -0.68763167	     -3.64496007	     -2.13995015	      7.50689866
      3.21000000	     -0.76963288	     -1.64816825	    -90.21420107	      1.31070221	      0.89263965	      0.48801211	     -6.81877521	      1.76605961	     -2.80585136	     -4.89447686	     17.62780775	     -3.93138070	     -2.91903471	     -1.85512730	    -13.59573917	    -14.39954724	     17.01039651	     -0.69429789	     -3.64302414	     -2.18400426	      7.43658815
      3.22000000	     -0.73352270	     -1.62930346	    -90.04355421	      1.31094102	      0.89260772	      0.48807874	     -6.78360130	      1.74534954	     -2.94054387	     -4.95655881	     17.67490582	     -3.95366922	     -2.91307973	     -1.81576105	    -13.44919194	    -14.33740234	     16.98433042	     -0.69929820	     -3.64600321	     -2.22787326	      7.34834007
      3.23000000	     -0.69545704	     -1.61626706	    -89.86358845	      1.31121086	      0.89257956	      0.48814321	     -6.77030171	      1.72211468	     -3.07710057	     -4.99238661	     17.70900904	     -3.97611198	     -2.91534497	     -1.77393118	    -13.30612118	    -14.26835107	     16.96880989	     -0.69959689	     -3.65171829	     -2.27066067	      7.23524862
      3.24000000	     -0.65939891	     -1.61289166	    -89.66002964	      1.31151018	      0.89255886	      0.48818079	     -6.78607507	      1.70493603	     -3.24761430	     -4.99418572	     17.75101990	     -3.99965695	     -2.91009275	     -1.73710232	    -13.12014428	    -14.22413763	     16.93668167	     -0.70593689	     -3.67023031	     -2.31564368	      7.13757077
      3.25000000	     -0.61485091	     -1.60738169	    -89.46375821	      1.31180467	      0.89252669	      0.48825199	     -6.82329298	      1.67802513	     -3.40307899	     -4.95631607	     17.77955469	     -4.01975235	     -2.90656049	     -1.69309322	    -12.97526631	    -14.17974256	     16.93135891	     -0.70705152	     -3.67226904	     -2.37122398	      7.04228781
